<svg
    width="40"
    height="40"
    viewBox="0 0 16 16"
    xmlns="http://www.w3.org/2000/svg"
>
    <path
        fill-rule="evenodd"
        clip-rule="evenodd"
        d="M4.827 1.094a3.733 3.733 0 00-3.733 3.733v6.533a3.733 3.733 0 003.733 3.734h6.533a3.733 3.733 0 003.734-3.734V4.827a3.733 3.733 0 00-3.734-3.733H4.827zm5.454 7a2.187 2.187 0 11-4.375 0 2.187 2.187 0 014.375 0zm1.313 0a3.5 3.5 0 11-7 0 3.5 3.5 0 017 0zm.469-2.938a1.25 1.25 0 100-2.5 1.25 1.25 0 000 2.5z"
        fill="#fff"
    ></path>
</svg>