<svg
    width="40"
    height="40"
    viewBox="0 0 16 16"
    xmlns="http://www.w3.org/2000/svg"
>
    <path
        fill-rule="evenodd"
        clip-rule="evenodd"
        d="M15.633 3.73c.111-.391 0-.678-.53-.678h-1.75c-.445 0-.65.248-.761.521 0 0-.89 2.283-2.152 3.767-.407.429-.593.566-.816.566-.11 0-.278-.137-.278-.527v-3.65c0-.468-.123-.677-.494-.677h-2.75a.432.432 0 00-.446.423c0 .444.63.547.695 1.796v2.713c0 .594-.102.702-.324.702-.594 0-2.037-2.293-2.893-4.918-.168-.51-.336-.716-.783-.716H.6c-.5 0-.6.248-.6.521 0 .488.593 2.908 2.763 6.108 1.447 2.186 3.484 3.371 5.339 3.371 1.113 0 1.25-.263 1.25-.716v-1.652c0-.527.106-.632.458-.632.26 0 .705.137 1.743 1.19 1.187 1.25 1.383 1.81 2.05 1.81h1.75c.5 0 .75-.263.607-.782-.158-.518-.725-1.269-1.477-2.16-.408-.507-1.02-1.053-1.205-1.326-.26-.352-.186-.508 0-.82 0 0 2.132-3.161 2.355-4.235z"
        fill="#fff"
    ></path>
</svg>